<svg width="24" height="24" viewBox="0 0 24 24" fill="none" xmlns="http://www.w3.org/2000/svg">
<path d="M11.9721 5.81738C10.3402 5.81738 8.77519 6.46565 7.62127 7.61956C6.46736 8.77348 5.81909 10.3385 5.81909 11.9704C5.81909 13.6023 6.46736 15.1673 7.62127 16.3213C8.77519 17.4752 10.3402 18.1234 11.9721 18.1234C13.604 18.1234 15.1691 17.4752 16.323 16.3213C17.4769 15.1673 18.1251 13.6023 18.1251 11.9704C18.1251 10.3385 17.4769 8.77348 16.323 7.61956C15.1691 6.46565 13.604 5.81738 11.9721 5.81738ZM11.9721 15.9664C11.4472 15.9664 10.9274 15.863 10.4424 15.6621C9.95742 15.4613 9.51676 15.1668 9.14557 14.7956C8.77439 14.4244 8.47995 13.9838 8.27906 13.4988C8.07818 13.0138 7.97478 12.494 7.97478 11.9691C7.97478 11.4441 8.07818 10.9243 8.27906 10.4394C8.47995 9.95439 8.77439 9.51372 9.14557 9.14253C9.51676 8.77135 9.95742 8.47691 10.4424 8.27602C10.9274 8.07513 11.4472 7.97174 11.9721 7.97174C13.0323 7.97174 14.049 8.39289 14.7987 9.14253C15.5483 9.89218 15.9695 10.9089 15.9695 11.9691C15.9695 13.0292 15.5483 14.046 14.7987 14.7956C14.049 15.5453 13.0323 15.9664 11.9721 15.9664Z" fill="white"/>
<path d="M18.3687 7.02615C19.1609 7.02615 19.8031 6.38392 19.8031 5.59169C19.8031 4.79946 19.1609 4.15723 18.3687 4.15723C17.5764 4.15723 16.9342 4.79946 16.9342 5.59169C16.9342 6.38392 17.5764 7.02615 18.3687 7.02615Z" fill="white"/>
<path d="M23.328 4.13307C23.0203 3.33736 22.5497 2.61475 21.9463 2.01161C21.343 1.40848 20.6202 0.938126 19.8244 0.630738C18.8934 0.281098 17.9098 0.0921161 16.9155 0.0718562C15.6341 0.0159679 15.2282 0 11.9787 0C8.72921 0 8.31271 -1.33843e-07 7.04192 0.0718562C6.04855 0.0924164 5.06587 0.281393 4.13573 0.630738C3.3399 0.938126 2.61712 1.40848 2.01375 2.01161C1.41038 2.61475 0.939758 3.33736 0.632069 4.13307C0.282882 5.06413 0.0943516 6.04773 0.0745176 7.04192C0.0172987 8.32202 0 8.72788 0 11.9787C0 15.2295 -9.91428e-09 15.642 0.0745176 16.9155C0.0944777 17.9108 0.282102 18.8929 0.632069 19.8257C0.939905 20.6215 1.41074 21.3442 2.01434 21.9474C2.61794 22.5505 3.34099 23.0208 4.13706 23.328C5.06523 23.6911 6.04845 23.8936 7.04458 23.9268C8.32601 23.9827 8.73187 24 11.9814 24C15.2309 24 15.6474 24 16.9182 23.9268C17.9124 23.907 18.896 23.7184 19.827 23.3693C20.623 23.0617 21.3458 22.5912 21.9492 21.9878C22.5526 21.3844 23.0231 20.6616 23.3307 19.8656C23.6806 18.9341 23.8683 17.9521 23.8882 16.9568C23.9454 15.6766 23.9627 15.2708 23.9627 12.02C23.9627 8.76913 23.9627 8.35662 23.8882 7.08317C23.8722 6.07493 23.6827 5.07698 23.328 4.13307ZM21.7073 16.817C21.6998 17.584 21.5598 18.3439 21.2934 19.0632C21.0926 19.5801 20.7864 20.0495 20.3942 20.4415C20.0019 20.8335 19.5323 21.1395 19.0153 21.34C18.3036 21.6037 17.552 21.7436 16.7931 21.7538C15.5289 21.8124 15.1723 21.827 11.9308 21.827C8.68663 21.827 8.35529 21.827 7.0672 21.7538C6.30872 21.7435 5.5576 21.6035 4.84631 21.34C4.32755 21.1406 3.85614 20.8351 3.46225 20.4431C3.06836 20.051 2.76067 19.581 2.55888 19.0632C2.29782 18.3512 2.15794 17.6005 2.14504 16.8423C2.08782 15.5782 2.07452 15.2216 2.07452 11.98C2.07452 8.73852 2.07452 8.40585 2.14504 7.11643C2.15264 6.3499 2.29265 5.59044 2.55888 4.87159C2.96474 3.82169 3.79641 2.99534 4.84631 2.59348C5.5576 2.32994 6.30872 2.18998 7.0672 2.17964C8.33267 2.12242 8.68796 2.10645 11.9308 2.10645C15.1737 2.10645 15.5063 2.10645 16.7931 2.17964C17.552 2.18983 18.3036 2.32979 19.0153 2.59348C19.5325 2.79409 20.0021 3.10028 20.3944 3.49251C20.7866 3.88475 21.0928 4.35443 21.2934 4.87159C21.5545 5.58357 21.6944 6.33426 21.7073 7.09248C21.7645 8.35795 21.7791 8.71324 21.7791 11.9561C21.7791 15.1989 21.7791 15.5462 21.7219 16.8184L21.7073 16.817Z" fill="white"/>
</svg>
