<?xml version="1.0" encoding="UTF-8"?>
<svg id="Calque_2" data-name="Calque 2" xmlns="http://www.w3.org/2000/svg" viewBox="0 0 1708.6 545.1">
  <defs>
    <style>
      .cls-1 {
        fill: #fff;
        stroke-width: 0px;
      }
    </style>
  </defs>
  <g id="Calque_2-2" data-name="Calque 2">
    <g>
      <polygon class="cls-1" points="281.8 53.8 217.3 126.5 113.7 102.5 106.2 208.3 208.7 209.1 179.4 266.1 130.6 272.9 221.1 533.4 54.4 478.6 79.6 403.9 0 221.8 105.5 0 281.8 53.8"/>
      <polygon class="cls-1" points="262.3 105.1 335.9 167 323.5 325.2 377.6 348 391 125.9 465.4 119.9 464 195.3 461.9 315.3 505 350.5 435.1 443.8 373.6 376.3 338.9 450.2 238.7 405.6 244.2 229 208.7 209.1 262.3 105.1"/>
      <polygon class="cls-1" points="553.9 113.1 464 195.3 517.1 232.7 517.4 426.8 597.5 423.1 611.5 231.2 661.7 261.4 717.1 189.7 656.1 122.1 604 185.7 553.9 113.1"/>
      <polygon class="cls-1" points="690.9 423.9 772.2 420.2 780.2 167.2 689.1 224.5 690.9 423.9"/>
      <polygon class="cls-1" points="712.5 124.1 780.2 167.2 884.9 16.4 712.5 124.1"/>
      <path class="cls-1" d="M919.3,327.9l-20.9-17.9,94.8-114.5-64-87.4-105.3,79.4-49.9,139.8,97.9,96.7,66.5,8,73.3-101.6-92.3-2.5ZM857.2,282.3l-1.2-84.3,59.7,39.4-40.6,57.3-17.9-12.3Z"/>
      <polygon class="cls-1" points="1053 97.8 993.2 195.5 1019.1 238.7 1018.4 383.7 1084.3 435.6 1142.8 373.7 1164.1 423.6 1234.6 390.4 1224.6 128.4 1150.1 117.1 1140.1 342.5 1094.9 353.8 1103.5 182.2 1053 97.8"/>
      <polygon class="cls-1" points="1464.6 103.2 1330 109.2 1246.9 189.3 1256.4 261.7 1362 260.5 1385.2 382.2 1301.5 286.6 1234.6 390.4 1335.9 454.6 1450.4 369.1 1457.6 232 1420.2 209.5 1328.8 226.1 1329.4 158.5 1420.2 209.5 1464.6 103.2"/>
      <path class="cls-1" d="M1708.6,361.1l-114.4-14.7-22-21.3,106.3-135.7-56.5-112.2-121.7,74.8-42.7,80,45.7,164.2,47.7,38.1-14.7,110.7,172.4-184.1ZM1549.4,302.4l-11.7-10.3,5.9-106.3,54.3,49.9-48.4,66.7Z"/>
    </g>
  </g>
</svg>