<svg width="25" height="18" viewBox="0 0 25 18" fill="none" xmlns="http://www.w3.org/2000/svg">
<path d="M24.4608 3.18592C24.3252 2.6752 24.0578 2.20906 23.6854 1.83419C23.313 1.45931 22.8486 1.18886 22.3388 1.04992C20.4678 0.544922 12.9628 0.544922 12.9628 0.544922C12.9628 0.544922 5.45777 0.544922 3.58577 1.04992C3.07618 1.18911 2.61206 1.45966 2.23985 1.8345C1.86763 2.20935 1.60036 2.67536 1.46477 3.18592C0.962769 5.06992 0.962769 8.99992 0.962769 8.99992C0.962769 8.99992 0.962769 12.9299 1.46477 14.8139C1.60035 15.3246 1.86774 15.7908 2.24016 16.1657C2.61258 16.5405 3.07695 16.811 3.58677 16.9499C5.45777 17.4549 12.9628 17.4549 12.9628 17.4549C12.9628 17.4549 20.4678 17.4549 22.3398 16.9499C22.8496 16.8111 23.3141 16.5407 23.6865 16.1658C24.0589 15.7909 24.3263 15.3247 24.4618 14.8139C24.9628 12.9299 24.9628 8.99992 24.9628 8.99992C24.9628 8.99992 24.9628 5.06992 24.4608 3.18592ZM10.5078 12.5679V5.43192L16.7808 8.99992L10.5078 12.5679Z" fill="white"/>
</svg>
